# The Great Editor v0.0.1
mtllib floor_1.mtl
o floor_1
v 0.16010975407531255 -1.6171934550222353 0
v 0.16010975407531255 -1.6171934550222353 -0.1
v 0.23619373933417792 -1.42695163980198 0
v 0.23619373933417792 -1.42695163980198 -0.1
v 1.326936130293396 -1.0591451344520477 0
v 1.326936130293396 -1.0591451344520477 -0.1
v 1.2444817304161497 -0.5391494238689902 0
v 1.2444817304161497 -0.5391494238689902 -0.1
v 1.555209320785387 -0.4567162587071383 0
v 1.555209320785387 -0.4567162587071383 -0.1
v 1.6186374156690684 -0.6152546438432501 0
v 1.6186374156690684 -0.6152546438432501 -0.1
v 2.3288749414723813 -0.41866364872000833 0
v 2.3288749414723813 -0.41866364872000833 -0.1
v 2.9703119893971777 -2.3814520967894204 0
v 2.9703119893971777 -2.3814520967894204 -0.1
v 2.2626863335874012 -2.5971543357678057 0
v 2.2626863335874012 -2.5971543357678057 -0.1
v 2.486096774254028 -3.2370412494687963 0
v 2.486096774254028 -3.2370412494687963 -0.1
v 3.138873160199543 -3.022315807398563 0
v 3.138873160199543 -3.022315807398563 -0.1
v 3.432358161668362 -3.725567111837051 0
v 3.432358161668362 -3.725567111837051 -0.1
v 4.256668578571486 -3.4786073717978088 0
v 4.256668578571486 -3.4786073717978088 -0.1
v 4.282213941191195 -3.5616351089907097 0
v 4.282213941191195 -3.5616351089907097 -0.1
v 5.477197550022522 -3.2335587561440806 0
v 5.477197550022522 -3.2335587561440806 -0.1
v 4.83983756745349 -3.895572243286249 0
v 4.83983756745349 -3.895572243286249 -0.1
v 6.237655177734074 -3.0575229655228156 0
v 6.237655177734074 -3.0575229655228156 -0.1
v 7.646451135873667 -1.6358163004233028 0
v 7.646451135873667 -1.6358163004233028 -0.1
v 8.409011000409283 -3.4840434589388276 0
v 8.409011000409283 -3.4840434589388276 -0.1
v 5.978506711058329 -4.143041616494961 0
v 5.978506711058329 -4.143041616494961 -0.1
v 5.811155919033457 -4.352500849147333 0
v 5.811155919033457 -4.352500849147333 -0.1
v 5.1508412091228575 -4.567629750810064 0
v 5.1508412091228575 -4.567629750810064 -0.1
v 5.228093103728426 -4.777534912485723 0
v 5.228093103728426 -4.777534912485723 -0.1
v 3.2906801405555655 -5.343206495882573 0
v 3.2906801405555655 -5.343206495882573 -0.1
v 3.1813213562733558 -5.0307588935663725 0
v 3.1813213562733558 -5.0307588935663725 -0.1
v 2.334735722921292 -5.302457077040328 0
v 2.334735722921292 -5.302457077040328 -0.1
v 1.5924125421567328 -4.863620448695446 0
v 1.5924125421567328 -4.863620448695446 -0.1
v 1.7745002266654601 -4.798259994710856 0
v 1.7745002266654601 -4.798259994710856 -0.1
v 1.5524912772148776 -4.033682832212752 0
v 1.5524912772148776 -4.033682832212752 -0.1
v 1.0070139081582954 -4.173428494224639 0
v 1.0070139081582954 -4.173428494224639 -0.1
v 0.8249686930803573 -3.687514501849921 0
v 0.8249686930803573 -3.687514501849921 -0.1
v 1.2820247072338091 -3.535176653609033 0
v 1.2820247072338091 -3.535176653609033 -0.1
v 0.9381497261335954 -2.5601209921196166 0
v 0.9381497261335954 -2.5601209921196166 -0.1
v 0.4835144695351283 -2.7142637911690457 0
v 0.4835144695351283 -2.7142637911690457 -0.1
v 4.347661167069543 -3.5436669234763523 0
v 4.347661167069543 -3.5436669234763523 -0.1
v 5.593153685819261 -3.443928177364613 0
v 5.593153685819261 -3.443928177364613 -0.1
vt 0.16010975407531255 -1.6171934550222353 0
vt 0.23619373933417792 -1.42695163980198 0
vt 1.326936130293396 -1.0591451344520477 0
vt 1.2444817304161497 -0.5391494238689902 0
vt 1.555209320785387 -0.4567162587071383 0
vt 1.6186374156690684 -0.6152546438432501 0
vt 2.3288749414723813 -0.41866364872000833 0
vt 2.9703119893971777 -2.3814520967894204 0
vt 2.2626863335874012 -2.5971543357678057 0
vt 2.486096774254028 -3.2370412494687963 0
vt 3.138873160199543 -3.022315807398563 0
vt 3.432358161668362 -3.725567111837051 0
vt 4.256668578571486 -3.4786073717978088 0
vt 4.282213941191195 -3.5616351089907097 0
vt 5.477197550022522 -3.2335587561440806 0
vt 4.83983756745349 -3.895572243286249 0
vt 6.237655177734074 -3.0575229655228156 0
vt 7.646451135873667 -1.6358163004233028 0
vt 8.409011000409283 -3.4840434589388276 0
vt 5.978506711058329 -4.143041616494961 0
vt 5.811155919033457 -4.352500849147333 0
vt 5.1508412091228575 -4.567629750810064 0
vt 5.228093103728426 -4.777534912485723 0
vt 3.2906801405555655 -5.343206495882573 0
vt 3.1813213562733558 -5.0307588935663725 0
vt 2.334735722921292 -5.302457077040328 0
vt 1.5924125421567328 -4.863620448695446 0
vt 1.7745002266654601 -4.798259994710856 0
vt 1.5524912772148776 -4.033682832212752 0
vt 1.0070139081582954 -4.173428494224639 0
vt 0.8249686930803573 -3.687514501849921 0
vt 1.2820247072338091 -3.535176653609033 0
vt 0.9381497261335954 -2.5601209921196166 0
vt 0.4835144695351283 -2.7142637911690457 0
vt 4.347661167069543 -3.5436669234763523 0
vt 5.593153685819261 -3.443928177364613 0
vn 0 0 1
vn 0 0 -1
usemtl floor_1
s off
f 3/2/1 1/1/1 65/33/1
f 66/33/2 2/1/2 4/2/2
f 3/2/1 65/33/1 5/3/1
f 6/3/2 66/33/2 4/2/2
f 7/4/1 5/3/1 11/6/1
f 12/6/2 6/3/2 8/4/2
f 7/4/1 11/6/1 9/5/1
f 10/5/2 12/6/2 8/4/2
f 13/7/1 11/6/1 5/3/1
f 6/3/2 12/6/2 14/7/2
f 13/7/1 5/3/1 15/8/1
f 16/8/2 6/3/2 14/7/2
f 35/18/1 33/17/1 37/19/1
f 38/19/2 34/17/2 36/18/2
f 37/19/1 33/17/1 39/20/1
f 40/20/2 34/17/2 38/19/2
f 45/23/1 43/22/1 47/24/1
f 48/24/2 44/22/2 46/23/2
f 47/24/1 43/22/1 49/25/1
f 50/25/2 44/22/2 48/24/2
f 51/26/1 49/25/1 55/28/1
f 56/28/2 50/25/2 52/26/2
f 51/26/1 55/28/1 53/27/1
f 54/27/2 56/28/2 52/26/2
f 59/30/1 57/29/1 63/32/1
f 64/32/2 58/29/2 60/30/2
f 59/30/1 63/32/1 61/31/1
f 62/31/2 64/32/2 60/30/2
f 67/34/1 65/33/1 1/1/1
f 2/1/2 66/33/2 68/34/2
f 65/33/1 63/32/1 17/9/1
f 18/9/2 64/32/2 66/33/2
f 65/33/1 17/9/1 5/3/1
f 6/3/2 18/9/2 66/33/2
f 5/3/1 17/9/1 15/8/1
f 16/8/2 18/9/2 6/3/2
f 69/35/1 31/16/1 29/15/1
f 30/15/2 32/16/2 70/35/2
f 31/16/1 39/20/1 71/36/1
f 72/36/2 40/20/2 32/16/2
f 71/36/1 39/20/1 33/17/1
f 34/17/2 40/20/2 72/36/2
f 39/20/1 31/16/1 41/21/1
f 42/21/2 32/16/2 40/20/2
f 41/21/1 31/16/1 43/22/1
f 44/22/2 32/16/2 42/21/2
f 43/22/1 31/16/1 49/25/1
f 50/25/2 32/16/2 44/22/2
f 49/25/1 31/16/1 27/14/1
f 28/14/2 32/16/2 50/25/2
f 49/25/1 27/14/1 23/12/1
f 24/12/2 28/14/2 50/25/2
f 49/25/1 23/12/1 55/28/1
f 56/28/2 24/12/2 50/25/2
f 55/28/1 23/12/1 19/10/1
f 20/10/2 24/12/2 56/28/2
f 55/28/1 19/10/1 57/29/1
f 58/29/2 20/10/2 56/28/2
f 57/29/1 19/10/1 63/32/1
f 64/32/2 20/10/2 58/29/2
f 63/32/1 19/10/1 17/9/1
f 18/9/2 20/10/2 64/32/2
f 21/11/1 19/10/1 23/12/1
f 24/12/2 20/10/2 22/11/2
f 25/13/1 23/12/1 27/14/1
f 28/14/2 24/12/2 26/13/2
f 27/14/1 31/16/1 69/35/1
f 70/35/2 32/16/2 28/14/2
